<svg version="1.1" id="Layer_1" xmlns="http://www.w3.org/2000/svg" xmlns:xlink="http://www.w3.org/1999/xlink" x="0px" y="0px"
	 viewBox="0 0 512.005 512.005" style="enable-background:new 0 0 512.005 512.005;" xml:space="preserve">
<g transform="translate(-1)">
	<g>
		<path style="fill:#0E9AA7;" d="M495.299,260.415l4.776,7.159l12.773-137.481c1.563-14.539-8.951-27.595-23.499-29.158
			l-29.308-3.151v179.668C484.971,274.566,495.299,260.415,495.299,260.415"/>
		<path style="fill:#0E9AA7;" d="M320.435,357.518H27.492c-0.265,0-0.503-0.071-0.759-0.079l-0.477,4.458
			c-1.562,14.548,8.96,27.604,23.499,29.166l283.569,31.832C320.276,401.418,315.959,374.891,320.435,357.518"/>
	</g>
	<path style="fill:#26B99A;" d="M320.576,356.859c3.761-13.727,7.768-26.359,8.139-28.089c5.57-25.591-9.966-41.869-9.966-41.869
		l17.655-26.483c0,0,12.632,17.655,44.138,17.655s35.31-17.655,35.31-17.655s3.805,17.655,35.31,17.655
		c3.196,0,6.065-0.291,8.872-0.618V48.556c0-14.627-11.855-26.483-26.483-26.483H27.483C12.864,22.073,1,33.928,1,48.556v282.483
		c0,14.627,11.864,26.483,26.483,26.483h292.952C320.488,357.309,320.523,357.071,320.576,356.859"/>
	<path style="fill:#F0C419;" d="M415.851,260.415c0,0,3.805,17.655,35.31,17.655s44.138-17.655,44.138-17.655l17.655,26.483
		c0,0-15.537,16.287-9.975,41.878c0.38,1.721,4.387,14.354,8.148,28.081c7.027,25.697-5.667,72.474-37.994,92.134
		c-0.194,0.124-0.415,0.212-0.618,0.318l-7.486,3.734c0,0-49.178,20.754-49.178,36.891c0-16.137-49.178-36.891-49.178-36.891
		l-7.486-3.734c-0.203-0.106-0.424-0.194-0.618-0.318c-32.327-19.659-45.021-66.436-37.994-92.134
		c3.761-13.727,7.768-26.359,8.148-28.081c5.561-25.591-9.975-41.878-9.975-41.878l17.655-26.483c0,0,12.632,17.655,44.138,17.655
		S415.851,260.415,415.851,260.415"/>
	<g>
		<polygon style="fill:#128972;" points="1.004,136.829 460.039,136.829 460.039,66.208 1.004,66.208 		"/>
		<path style="fill:#128972;" d="M106.935,198.622H36.315c-4.882,0-8.828-3.955-8.828-8.828c0-4.873,3.946-8.828,8.828-8.828h70.621
			c4.882,0,8.828,3.955,8.828,8.828C115.763,194.667,111.817,198.622,106.935,198.622"/>
		<path style="fill:#128972;" d="M212.866,198.622h-70.621c-4.882,0-8.828-3.955-8.828-8.828c0-4.873,3.946-8.828,8.828-8.828
			h70.621c4.882,0,8.828,3.955,8.828,8.828C221.694,194.667,217.748,198.622,212.866,198.622"/>
		<path style="fill:#128972;" d="M151.073,233.932H36.315c-4.882,0-8.828-3.955-8.828-8.828c0-4.873,3.946-8.828,8.828-8.828
			h114.759c4.882,0,8.828,3.955,8.828,8.828C159.901,229.977,155.955,233.932,151.073,233.932"/>
		<path style="fill:#128972;" d="M212.866,233.932h-26.483c-4.882,0-8.828-3.955-8.828-8.828c0-4.873,3.946-8.828,8.828-8.828
			h26.483c4.882,0,8.828,3.955,8.828,8.828C221.694,229.977,217.748,233.932,212.866,233.932"/>
		<path style="fill:#128972;" d="M318.747,286.898l17.655-26.483c0,0,12.632,17.655,44.138,17.655s35.31-17.655,35.31-17.655
			s0.018,0.071,0.053,0.194v-35.204H274.662v79.148h53.407C324.891,293.377,318.747,286.898,318.747,286.898"/>
	</g>
	<polygon style="fill:#FFFFFF;" points="415.901,313.381 433.3,348.647 468.866,348.691 444.061,381.75 451.211,419.312 
		415.901,402.204 380.591,419.312 387.741,381.75 362.935,348.691 398.502,348.647 	"/>
</g>
<g>
</g>
<g>
</g>
<g>
</g>
<g>
</g>
<g>
</g>
<g>
</g>
<g>
</g>
<g>
</g>
<g>
</g>
<g>
</g>
<g>
</g>
<g>
</g>
<g>
</g>
<g>
</g>
<g>
</g>
</svg>
