<svg width="108.098" height="77.616" viewBox="0 0 101.34 72.766" xmlns="http://www.w3.org/2000/svg"><path d="M6.98 53.46h-.915l-.913 5.104h.89c2.105 0 3.045-1.095 3.045-3.149 0-1.295-.71-1.955-2.107-1.955m-1.169 7.817H4.67L3.555 67.67H.004l2.991-16.924h4.694c2.765 0 5.151 1.068 5.151 4.364 0 4.264-2.841 6.167-7.029 6.167M18.58 58.69c-1.311 0-2.599 2.184-2.599 4.589 0 1.238.294 1.966.899 1.966 1.044 0 2.526-2.38 3.084-5.488l.097-.533c-.219-.173-.584-.534-1.481-.534m3.254 8.982h-3.278l.293-1.7c-.557.874-1.385 1.946-3.254 1.946-1.556 0-3.06-1.218-3.06-4.274 0-4.395 2.599-7.626 5.606-7.626 1.701 0 2.331.703 2.553.923l.12-.678h3.036l-2.016 11.41zM30.99 66.97c-1.674 3.348-3.348 5.314-7.234 5.801l-.362-2.379c1.481-.462 2.985-1.212 3.812-2.89l.336-.68-1.987-10.56h3.472l.873 6.214 2.865-6.214h3.616L30.99 66.97zM52.26 67.67h-3.278l1.335-7.526c.095-.484.073-.972-.483-.972-1.022 0-2.844 2.43-3.352 5.343l-.557 3.155h-3.283l1.34-7.526c.094-.484.074-.972-.487-.972-1.02 0-2.839 2.43-3.353 5.343l-.556 3.155H36.31l2.014-11.41H41.6l-.46 2.671c.729-1.192 1.87-2.916 3.835-2.916 1.772 0 2.551 1.142 2.427 2.965.632-1.048 1.823-2.965 3.91-2.965 2.017 0 2.744 1.482 2.33 3.811L52.26 67.67zM61.8 58.34c-1.019 0-1.991 1.289-2.38 3.134 2.161-.292 3.472-.8 3.472-2.067 0-.726-.438-1.067-1.092-1.067m-2.55 5.005c.05 1.257.585 1.891 1.676 1.891 1.263 0 2.474-.656 3.375-1.212l.899 2.135c-.754.558-2.38 1.75-4.734 1.75-2.55 0-4.589-1.238-4.589-4.687 0-4.007 2.208-7.213 6.095-7.213 2.913 0 4.174 1.265 4.174 3.206 0 3.156-2.574 3.91-6.896 4.13M77.02 67.67h-3.278l1.335-7.526c.1-.484.074-.972-.483-.972-1.02 0-2.843 2.43-3.352 5.343l-.556 3.155h-3.28l2.015-11.41H72.7l-.46 2.671c.727-1.192 1.867-2.916 3.834-2.916 2.015 0 2.742 1.482 2.333 3.811L77.02 67.67zM87.22 58.69h-1.699l-.994 5.631c-.102.488.07.728.434.728.34 0 .609-.094.925-.24l.338 2.256c-.487.316-1.409.853-2.72.853-1.698 0-2.692-1.072-2.283-3.376l1.023-5.852h-1.215l.433-2.427h1.217l.678-2.477 3.16-.681-.562 3.158h1.701l-.436 2.427zM96.37 59.73c-.703-.486-1.821-1.019-2.691-1.019-.683 0-1.145.241-1.145.8 0 .509.512.731 1.192 1.019l.63.267c1.165.485 2.454 1.262 2.454 3.302 0 2.427-1.289 3.813-4.203 3.813-2.377 0-3.764-1.046-4.636-1.675l1.285-2.257c.851.627 2.185 1.235 3.061 1.235.754 0 1.066-.265 1.066-.824s-.533-.804-1.212-1.07l-.656-.264c-1.163-.462-2.404-1.24-2.404-3.257 0-2.62 2.019-3.786 4.54-3.786 2.04 0 3.305 1.021 3.885 1.455L96.37 59.73zM52.29 36.76h-7.079l-.687 3.935h5.482l-.509 2.917H44.02l-1.27 7.155h-3.554l2.997-16.923h10.63l-.532 2.916zM56.77 41.78c-1.311 0-2.599 2.186-2.599 4.589 0 1.24.291 1.967.899 1.967 1.044 0 2.526-2.377 3.081-5.486l.1-.534c-.217-.171-.581-.536-1.481-.536m3.251 8.984h-3.277l.292-1.7c-.557.875-1.382 1.943-3.254 1.943-1.553 0-3.057-1.214-3.057-4.27 0-4.397 2.599-7.627 5.605-7.627 1.704 0 2.332.705 2.552.922l.122-.678h3.035l-2.018 11.41zM71.12 42.83c-.706-.486-1.823-1.021-2.696-1.021-.68 0-1.143.245-1.143.801 0 .51.513.727 1.189 1.02l.631.269c1.166.485 2.454 1.258 2.454 3.3 0 2.43-1.288 3.812-4.2 3.812-2.38 0-3.761-1.044-4.639-1.672l1.29-2.26c.846.63 2.184 1.237 3.058 1.237.748 0 1.068-.266 1.068-.825s-.535-.801-1.215-1.07l-.655-.265c-1.163-.462-2.403-1.237-2.403-3.254 0-2.62 2.016-3.787 4.54-3.787 2.037 0 3.301 1.019 3.885 1.454L71.12 42.83zM80.22 41.78h-1.699l-.997 5.636c-.095.484.072.728.436.728.342 0 .609-.099.924-.244l.337 2.256c-.485.318-1.407.852-2.716.852-1.698 0-2.696-1.07-2.281-3.374l1.02-5.854h-1.218l.439-2.426h1.214l.68-2.476 3.156-.682-.56 3.158h1.701l-.436 2.426zM87.09 41.44c-1.019 0-1.993 1.286-2.378 3.13 2.16-.29 3.47-.799 3.47-2.061 0-.73-.435-1.069-1.092-1.069m-2.55 5.001c.05 1.263.584 1.894 1.677 1.894 1.264 0 2.475-.655 3.375-1.213l.898 2.135c-.754.56-2.381 1.75-4.735 1.75-2.549 0-4.589-1.238-4.589-4.685 0-4.007 2.209-7.212 6.098-7.212 2.91 0 4.171 1.262 4.171 3.205 0 3.156-2.573 3.909-6.895 4.126M100.72 42.66c-1.651 0-3.548 1.407-4.176 4.954l-.559 3.155h-3.278l2.017-11.412h3.203l-.41 2.404c.748-1.698 1.624-2.646 3.834-2.646l-.631 3.545zM51.23 23.54v.057c-.005.815-.649 1.633-1.924 2.248L6.576 46.541c-2.569 1.246-3.519.231-2.12-2.254l7.819-13.892a14.002 14.002 0 0 0 1.782-6.855c0-2.491-.648-4.83-1.782-6.855L4.456 2.792C3.057.306 4.007-.708 6.576.537l42.73 20.695c1.275.622 1.919 1.435 1.924 2.25v.058z" fill="#176fc1"/></svg>