<svg version="1.0" xmlns="http://www.w3.org/2000/svg"
 width="1024.000000pt" height="1024.000000pt" viewBox="0 0 1024.000000 1024.000000"
 preserveAspectRatio="xMidYMid meet">
<g transform="translate(0.000000,1024.000000) scale(0.100000,-0.100000)"
fill="#000000" stroke="none">
<path d="M2286 6610 c-488 -77 -877 -473 -945 -964 -7 -50 -11 -372 -11 -910
0 -916 -1 -905 61 -996 56 -82 129 -120 234 -120 98 0 160 23 220 83 83 83 88
107 93 404 l4 251 351 4 c341 4 355 5 448 30 363 98 636 341 773 687 58 147
71 223 70 421 -1 156 -4 186 -27 275 -36 134 -128 317 -213 423 -112 140 -236
236 -411 319 -145 69 -259 94 -438 98 -82 2 -176 0 -209 -5z m357 -85 c499
-87 867 -527 867 -1035 0 -449 -279 -841 -707 -993 -139 -50 -208 -57 -568
-57 -302 0 -335 -2 -354 -17 -20 -17 -21 -29 -23 -288 -3 -256 -4 -272 -25
-311 -47 -87 -123 -129 -223 -122 -81 6 -129 40 -167 115 l-28 58 -3 857 c-2
835 -2 860 18 960 41 202 135 378 280 528 162 166 362 271 589 310 79 13 255
11 344 -5z"/>
<path d="M2280 6316 c-155 -33 -292 -104 -408 -212 -124 -114 -207 -251 -254
-419 -22 -80 -23 -85 -26 -915 -1 -459 0 -845 3 -858 5 -19 11 -23 38 -20 l32
3 3 352 2 352 473 4 c521 4 515 3 663 72 254 117 435 344 489 614 21 102 16
312 -10 406 -45 164 -165 347 -297 450 -79 63 -218 134 -313 160 -82 23 -309
29 -395 11z m316 -77 c365 -67 636 -396 636 -774 0 -300 -168 -572 -435 -704
-154 -76 -147 -75 -665 -79 l-463 -3 4 463 c4 517 3 509 78 665 99 206 299
369 520 423 85 21 236 25 325 9z"/>
<path d="M2293 6045 c-165 -45 -319 -176 -389 -331 -46 -104 -54 -180 -54
-512 0 -226 3 -311 12 -320 19 -19 655 -17 733 3 163 41 314 159 388 301 116
225 81 502 -88 683 -124 133 -260 191 -443 190 -59 0 -131 -7 -159 -14z m325
-87 c163 -54 305 -208 342 -374 17 -71 14 -185 -5 -252 -53 -183 -213 -337
-387 -371 -29 -5 -185 -11 -346 -13 l-292 -3 0 290 c0 315 5 354 57 463 39 82
153 194 236 232 133 63 261 71 395 28z"/>
<path d="M2387 5790 c-93 -24 -176 -91 -219 -178 -22 -45 -23 -58 -23 -262 l0
-215 195 0 c189 1 197 1 251 27 104 48 170 137 189 252 17 108 -24 232 -99
298 -75 66 -204 100 -294 78z m181 -99 c56 -29 110 -95 129 -161 39 -134 -50
-280 -188 -309 -27 -6 -106 -11 -176 -11 l-125 0 4 158 c4 147 6 160 31 208
64 125 207 175 325 115z"/>
<path d="M4050 5185 l0 -595 80 0 80 0 0 254 0 253 88 -4 c117 -7 274 10 347
38 41 15 75 38 111 73 66 66 89 130 88 241 -1 173 -101 293 -269 324 -32 6
-164 11 -292 11 l-233 0 0 -595z m525 438 c50 -26 73 -52 91 -100 42 -118 -17
-244 -130 -278 -28 -9 -111 -19 -188 -22 l-138 -6 0 217 0 218 163 -4 c141 -3
167 -6 202 -25z"/>
<path d="M6690 5185 l0 -595 75 0 75 0 2 508 3 507 195 -505 196 -505 76 -3
76 -3 70 178 c38 98 127 327 198 509 l129 331 3 -508 2 -509 75 0 75 0 0 588
0 589 -121 7 c-67 4 -123 5 -125 3 -2 -2 -85 -220 -185 -485 -100 -265 -185
-482 -189 -482 -4 0 -90 217 -192 483 l-185 482 -127 3 -126 3 0 -596z"/>
<path d="M5147 5430 c-93 -24 -163 -84 -186 -159 -23 -78 -20 -81 63 -81 l74
0 7 37 c13 73 99 121 190 108 92 -14 130 -60 142 -175 l6 -60 -106 0 c-159 0
-275 -26 -350 -77 -109 -75 -130 -258 -41 -361 53 -63 119 -87 239 -86 112 0
163 16 227 73 39 34 48 29 48 -30 l0 -29 71 0 c70 0 71 0 65 24 -15 62 -26
228 -26 417 0 220 -6 258 -52 319 -12 17 -46 42 -75 56 -44 22 -70 27 -155 30
-57 2 -120 -1 -141 -6z m291 -434 c10 -11 -20 -174 -39 -214 -51 -105 -216
-138 -304 -61 -89 78 -59 209 59 254 71 27 263 41 284 21z"/>
<path d="M8413 5412 c-163 -58 -246 -199 -247 -422 -1 -193 59 -314 188 -380
68 -34 71 -35 190 -35 117 0 124 1 188 33 91 44 149 120 164 211 l7 41 -71 0
-71 0 -11 -41 c-25 -91 -134 -160 -227 -143 -117 21 -187 106 -207 252 l-6 42
301 0 302 0 -7 85 c-13 171 -73 285 -181 340 -52 27 -70 30 -159 33 -78 2
-113 -2 -153 -16z m214 -103 c64 -20 133 -132 133 -216 l0 -23 -221 0 -221 0
6 38 c11 65 58 144 103 176 62 43 116 50 200 25z"/>
<path d="M5700 5416 c0 -3 77 -188 170 -410 94 -223 170 -408 170 -411 0 -3
-29 -73 -65 -156 -36 -82 -65 -152 -65 -155 0 -3 35 -4 77 -2 l78 3 231 565
231 565 -75 3 c-47 2 -78 -1 -82 -8 -4 -6 -61 -153 -126 -326 -76 -201 -122
-310 -127 -302 -5 7 -62 153 -126 323 l-118 310 -87 3 c-47 1 -86 0 -86 -2z"/>
</g>
</svg>
